# xmcd
#
# Track frame offsets:
#	150
#	4012
#	14110
#	34442
#	53713
#	70080
#	86057
#	105387
#	128303
#	148318
#	166476
#	183992
#	198094
#
# Disc length: 2822 seconds
#
# Revision: 0
# Processed by: cddbd v1.4PL0 Copyright (c) Steve Scherf et al.
# Submitted via: audiograbber 1.80.04
#
DISCID=ac0b040d
DTITLE=The blues berries - Funky Blue Dinner
DYEAR=2000
DGENRE=Blues
TTITLE0=Welcome to the Diner
TTITLE1=Jump-Up Boogie
TTITLE2=My Best Friend Jimmy
TTITLE3=The Bike Song
TTITLE4=No Way
TTITLE5=Funky Blue
TTITLE6=September
TTITLE7=The Word
TTITLE8=Greens On My Plate
TTITLE9=Peaches n Cream
TTITLE10=Super Kid
TTITLE11=Travellin' Blues
TTITLE12=Good Times
EXTD=
EXTT0=
EXTT1=
EXTT2=
EXTT3=
EXTT4=
EXTT5=
EXTT6=
EXTT7=
EXTT8=
EXTT9=
EXTT10=
EXTT11=
EXTT12=
PLAYORDER=
